<?xml version="1.0" encoding="UTF-8"?>
<svg xmlns="http://www.w3.org/2000/svg" viewBox="0 0 1000 1000">
  <defs>
    <clipPath id="clip">
      <rect x="144" y="144" width="712" height="712"/>
    </clipPath>
  </defs>
  <rect width="1000" height="1000" fill="#C50000"/>
  <g clip-path="url(#clip)" fill="#fff" fill-rule="evenodd">
    <polygon points="250.37 737.24 249.66 738.31 248.95 739.45 248.17 741.87 247.81 744.43 247.95 747.06 248.59 749.77 249.66 752.4 251.16 754.75 253.29 757.1 254.72 758.38 256.28 759.52 257.78 760.38 259.49 761.09 261.12 761.59 262.83 762.02 264.54 762.09 266.25 762.09 268.03 761.8 269.74 761.38 271.45 760.88 273.16 760.09 274.87 759.1 276.57 757.96 278.14 756.68 279.64 755.18 281.84 752.69 283.55 750.34 284.69 748.06 285.47 745.43 285.97 743.15 286.19 740.94 286.04 738.73 285.69 736.6 284.98 734.75 283.98 732.82 282.7 731.04 281.06 729.34 279.56 727.98 278.07 726.91 276.43 725.99 274.87 725.28 273.16 724.78 271.45 724.49 269.74 724.49 267.96 724.56 270.45 720.36 268.03 718.09 254.22 732.54 266.04 743.86 269.03 740.73 260.63 732.75 262.62 730.9 264.76 729.48 266.96 728.69 269.03 728.34 271.23 728.41 273.37 729.12 275.44 730.19 277.43 731.83 279.35 733.89 280.06 735.1 280.63 736.24 281.06 737.45 281.34 738.66 281.49 739.87 281.49 741.01 281.34 742.36 280.99 743.58 279.99 746.14 278.28 748.77 275.93 751.48 273.44 753.69 270.95 755.47 268.32 756.6 267.1 756.96 265.82 757.17 264.54 757.32 263.33 757.17 262.12 756.96 260.91 756.68 259.7 756.18 258.63 755.61 256.42 753.9 255 752.26 253.86 750.77 253.08 749.06 252.72 747.49 252.51 745.78 252.72 744.07 253.22 742.36 254 740.73 250.37 737.24"/>
    <polygon points="234.64 736.74 263.4 712.96 245.89 691.74 242.33 694.59 256.71 711.89 247.17 719.65 234.14 704.06 230.72 706.98 243.68 722.57 234.92 729.9 220.82 712.89 217.26 715.81 234.64 736.74"/>
    <polygon points="211.5 708.12 242.9 687.83 240.19 683.7 213.78 700.86 234.42 674.87 231.72 670.67 199.68 678.85 226.02 661.84 223.39 657.71 192.06 678 195.9 683.98 228.23 675.86 207.44 701.92 211.5 708.12"/>
    <polygon points="186.79 668.17 220.33 651.73 208.15 627.02 204.16 628.94 213.99 649.09 202.88 654.5 193.91 636.28 189.92 638.27 198.82 656.5 188.64 661.55 178.89 641.69 174.76 643.68 186.79 668.17"/>
    <polygon points="170.98 634.43 206.09 621.61 196.55 595.76 192.34 597.26 200.03 618.33 188.43 622.61 181.38 603.45 177.18 605.09 184.09 624.1 173.48 628.02 165.86 607.3 161.52 608.86 170.98 634.43"/>
    <polygon points="158.74 599.68 195.05 590.71 193.84 585.94 164.58 593.13 189.35 567.5 187.93 561.94 151.69 570.92 152.83 575.69 182.23 568.49 157.31 593.84 158.74 599.68"/>
    <polygon points="157.03 531.97 154.4 532.68 152.12 533.68 151.12 534.39 150.19 535.1 149.41 536.03 148.84 536.88 147.7 539.09 147.13 541.72 146.92 544.5 147.13 547.85 147.7 550.62 148.63 553.04 149.91 555.18 151.4 556.82 153.26 558.17 155.32 559.02 157.67 559.45 160.16 559.38 162.16 558.88 163.86 558.03 165.29 556.96 166.36 555.46 166.93 554.47 167.35 553.33 167.85 551.05 168.85 540.58 169.49 537.66 169.85 536.6 170.49 535.67 171.2 534.89 171.98 534.32 172.91 533.89 174.05 533.68 175.68 533.68 176.97 533.96 178.18 534.67 179.17 535.81 180.1 537.17 180.81 538.8 181.31 540.51 181.66 542.44 181.88 544.71 181.66 546.85 181.17 548.63 180.53 550.2 179.39 551.55 177.96 552.55 176.4 553.33 174.4 553.83 175.11 558.53 177.18 558.17 178.89 557.67 180.17 557.03 181.52 556.18 182.59 555.18 183.73 553.83 184.58 552.33 185.3 550.91 185.94 549.13 186.22 546.99 186.22 544.64 186.01 542.08 185.44 538.88 184.44 536.03 183.23 533.61 181.59 531.68 180.81 530.9 179.81 530.19 178.82 529.55 177.82 529.19 176.61 528.91 175.47 528.76 172.91 528.76 171.06 529.19 169.49 529.76 168.07 530.69 166.78 531.76 165.79 533.11 164.93 534.6 164.43 536.38 164.15 538.31 162.94 550.05 162.58 551.76 162.23 552.47 161.73 553.04 161.16 553.54 160.45 553.97 158.81 554.47 157.31 554.54 156.03 554.25 154.82 553.76 153.83 552.83 152.9 551.76 152.19 550.41 151.69 548.7 151.33 546.92 151.19 544.93 151.33 543.15 151.83 541.51 152.54 540.09 153.4 538.88 154.61 537.88 156.03 537.17 157.74 536.81 157.03 531.97"/>
    <polygon points="155.96 492.1 153.33 492.6 151.05 493.66 148.91 495.09 147.2 497.01 145.78 499.22 144.78 501.78 144.21 504.49 144 507.55 144.07 509.54 144.43 511.46 144.93 513.24 145.5 514.81 146.28 516.38 147.28 517.87 148.41 519.08 149.62 520.22 151.05 521.29 152.54 522.14 154.11 522.93 155.96 523.57 157.81 524.07 159.88 524.35 162.01 524.56 164.22 524.56 166.43 524.49 168.49 524.28 170.49 523.78 172.27 523.28 173.98 522.57 175.61 521.79 176.97 520.72 178.32 519.72 179.53 518.58 180.53 517.23 181.38 515.88 182.09 514.31 182.73 512.74 183.09 511.04 183.3 509.26 183.3 507.33 183.02 504.2 182.23 501.28 180.88 498.72 180.1 497.58 179.17 496.51 178.18 495.51 177.11 494.59 174.47 493.16 171.55 492.1 168.28 491.38 168.35 496.3 170.7 496.87 172.76 497.72 174.54 498.72 175.97 499.93 177.18 501.28 177.96 502.92 178.6 504.7 178.82 506.69 178.6 509.61 177.89 512.03 177.39 513.1 176.82 514.24 175.97 515.17 175.11 515.95 174.05 516.73 172.98 517.37 170.34 518.44 167.35 519.08 163.86 519.37 160.52 519.22 157.53 518.65 154.89 517.73 152.76 516.38 151.83 515.52 151.05 514.67 150.19 513.67 149.7 512.53 149.2 511.32 148.84 510.11 148.63 508.83 148.49 507.4 148.63 505.41 148.91 503.63 149.48 501.92 150.41 500.5 151.55 499.29 152.83 498.29 154.32 497.51 156.03 497.01 155.96 492.1"/>
    <polygon points="145 483.05 182.23 486.33 182.73 481.27 165.36 479.78 167.07 460.41 184.44 461.98 184.94 456.85 147.7 453.58 147.2 458.56 162.58 459.99 160.87 479.35 145.5 477.93 145 483.05"/>
    <path d="M151.4,432.5l33.89,21.15,1-5.13-9.9-5.98,2.99-14.67,11.32-1.42,1.07-5.48-39.23,5.91-1.14,5.62h0ZM157.31,430.94l17.23-2.14-2.28,11.25-14.95-9.11h0Z"/>
    <path d="M157.31,406.23l35.74,11.18,1.5-4.91-15.02-4.7,3.84-12.03.43-1.99v-2.14l-.43-1.92-.78-1.78-1.21-1.71-1.5-1.42-1.78-1.21-2.14-.93-2.21-.43-1.99-.07-1.99.43-1.92.71-1.71,1-1.42,1.42-1.14,1.71-.93,1.92-.21.71-5.13,16.16h0ZM175.4,406.44l-12.32-3.84,3.13-9.83.57-1.64.71-1.28.93-1.07.93-.71,1.14-.5,1.21-.28,1.28.07,1.5.28,1.42.57,1.07.71.93.93.71,1,.43,1.14.07,1.28-.07,1.42-.28,1.5-3.35,10.25h0Z"/>
    <polygon points="173.55 359.52 213.06 363.72 215.48 358.81 187.93 330.12 185.3 335.39 209.36 358.81 176.11 354.54 173.55 359.52"/>
    <path d="M197.33,314.52l24.28,31.68,2.78-4.41-7.12-9.11,7.83-12.6,11.25,2.63,2.92-4.7-38.8-8.19-3.13,4.7h0ZM203.45,315.24l16.87,3.99-5.98,9.75-10.89-13.74h0Z"/>
    <polygon points="211.85 292.24 241.19 315.31 244.25 311.46 220.47 292.74 256 296.58 259.49 292.02 230.22 268.96 227.09 272.8 250.87 291.53 215.56 287.54 211.85 292.24"/>
    <polygon points="245.74 251.37 277.86 272.59 281.99 268.96 267.75 240.19 294.73 257.56 298.72 254.08 281.13 219.69 276.93 223.39 292.02 250.73 265.54 233.71 261.41 237.27 275.36 265.68 249.87 247.52 245.74 251.37"/>
    <polygon points="287.97 215.41 310.04 245.53 314.17 242.54 292.1 212.42 287.97 215.41"/>
    <polygon points="329.4 201.1 327.7 198.97 326.77 198.11 325.77 197.33 323.71 196.19 322.57 195.76 321.5 195.62 319.08 195.62 316.45 195.98 313.74 196.97 310.82 198.61 308.54 200.32 306.62 202.1 305.34 204.09 304.41 206.3 303.92 208.51 304.06 210.71 304.63 213.06 305.84 215.27 307.05 216.84 308.47 218.05 310.04 218.83 311.82 219.26 313.03 219.33 314.24 219.33 316.59 218.83 326.49 215.41 327.98 215.06 329.26 214.77 330.47 214.63 331.61 214.84 332.54 215.13 333.39 215.63 334.18 216.34 334.82 217.26 335.53 218.62 335.81 220.04 335.74 221.47 335.1 222.89 334.18 224.24 333.04 225.6 331.61 226.81 330.12 227.87 327.98 228.94 326.06 229.65 324.28 230.01 322.5 230.01 320.86 229.51 319.29 228.66 317.94 227.45 316.66 225.95 312.53 228.44 313.88 230.29 315.02 231.58 316.16 232.57 317.44 233.28 318.94 234 320.58 234.42 322.28 234.71 323.85 234.71 325.7 234.42 327.77 233.78 329.9 232.86 332.11 231.72 334.82 229.65 337.02 227.66 338.73 225.6 339.8 223.39 340.44 221.04 340.51 219.97 340.51 218.76 339.94 216.41 338.8 214.2 337.74 212.71 336.52 211.5 335.1 210.5 333.61 209.93 331.97 209.5 330.33 209.43 328.48 209.65 326.56 210.14 315.38 213.92 313.67 214.35 312.17 214.06 311.46 213.7 310.75 213.35 309.61 211.92 309.04 210.71 308.76 209.43 308.76 208.15 309.04 206.8 309.61 205.52 310.68 204.31 311.82 203.24 313.46 202.1 315.16 201.1 316.87 200.53 318.58 200.18 320.08 200.32 321.57 200.6 323 201.32 324.21 202.31 325.28 203.74 329.4 201.1"/>
    <polygon points="332.32 186.93 348.63 220.54 353.26 218.33 347.56 206.51 350.12 198.9 370.2 210 376.11 207.08 352.05 194.05 359.1 173.9 353.04 176.82 344.86 201.03 336.88 184.73 332.32 186.93"/>
    <polygon points="366.29 171.06 374.9 194.98 375.54 196.47 376.4 197.97 377.54 199.32 378.75 200.53 380.1 201.53 381.74 202.38 383.3 203.02 385.01 203.31 386.86 203.38 388.64 203.24 390.64 202.81 392.63 202.17 395.76 200.89 398.26 199.18 399.39 198.18 400.25 197.19 401.1 196.12 401.82 194.91 402.31 193.7 402.67 192.49 403.1 189.85 403.03 187.29 402.38 184.73 393.84 161.09 389.14 162.8 397.26 185.58 397.4 185.94 397.76 187.57 398.04 189.14 397.97 190.78 397.54 192.27 396.9 193.77 395.91 195.05 394.7 196.19 393.13 197.19 391.49 197.9 389.36 198.47 387.43 198.61 385.65 198.4 383.94 197.83 382.45 196.76 381.17 195.48 380.03 193.77 379.1 191.78 370.99 169.35 366.29 171.06"/>
    <polygon points="404.31 157.96 412.85 194.41 417.62 193.2 410.72 163.79 436.2 188.86 441.69 187.57 433.07 151.19 428.23 152.26 435.28 181.74 410.07 156.6 404.31 157.96"/>
    <path d="M443.89,149.27l4.41,37.1,15.66-1.78,1.64-.28,1.5-.5,1.5-.57,1.28-.71,1.21-.93,1.07-1.07,1.14-1.21.93-1.28.71-1.42.71-1.64.5-1.64.43-1.78.28-1.78.07-1.92v-1.99l-.21-2.14-.28-1.99-.5-1.92-.57-1.78-.71-1.71-.78-1.64-.93-1.42-1.07-1.28-1.21-1.14-1.71-1.28-1.78-1-1.78-.5-2.14-.5-1.99-.07h-1.78l-15.59,1.78h0ZM452.79,181.45l-3.28-28.48,8.9-1,2.63-.07,2.42.43,1.99.93,1.78,1.28,1.5,1.78,1.21,2.28.93,2.71.57,3.13.21,2.78-.07,2.63-.43,2.42-.57,1.99-.57,1.21-.71,1.14-.78.93-.78.93-1,.71-1,.5-1,.43-1.14.21-10.82,1.14h0Z"/>
    <polygon points="484.19 145.28 484.48 182.52 512.1 182.38 511.96 177.82 489.6 178.03 489.53 165.57 509.9 165.5 509.75 160.87 489.39 161.09 489.32 149.77 511.46 149.55 511.46 145.07 484.19 145.28"/>
    <polygon points="536.95 146.78 531.76 183.73 559.02 187.65 559.59 183.16 537.45 180.03 539.16 167.71 559.31 170.63 559.88 166.14 539.73 163.3 541.37 151.97 563.3 155.11 563.94 150.55 536.95 146.78"/>
    <polygon points="573.34 152.47 564.15 188.64 568.92 189.85 576.33 160.59 587.36 194.55 592.92 195.9 602.03 159.81 597.33 158.45 589.78 187.79 579.17 153.9 573.34 152.47"/>
    <polygon points="626.66 168.42 613.14 203.24 617.84 205.09 631.51 170.34 626.66 168.42"/>
    <polygon points="641.33 174.05 625.1 207.65 629.51 209.86 642.61 182.66 646.6 218.05 651.73 220.54 667.96 186.93 663.48 184.73 650.37 212.07 646.74 176.61 641.33 174.05"/>
    <polygon points="677.5 192.34 657.78 224.1 662.19 226.81 671.09 212.42 686.62 222.04 689.04 218.26 673.51 208.65 679.42 198.9 697.15 209.93 699.57 206.02 677.5 192.34"/>
    <path d="M719.65,219.83l-1.64-1.21-1.71-1-1.71-.71-1.71-.57-1.78-.43-1.71-.21h-1.78l-1.71.21-1.71.43-1.71.5-1.71.71-1.64,1-1.64,1.14-1.5,1.28-1.5,1.42-1.42,1.71-1.21,1.71-1.14,1.78-.93,1.78-.71,1.78-.5,1.78-.43,1.78-.07,1.78.07,1.78.21,1.71.43,1.71.64,1.64.78,1.64,1,1.64,1.07,1.42,1.42,1.42,1.5,1.28,1.64,1.21,1.71.93,1.71.78,1.71.57,1.78.43,1.71.21h1.78l1.71-.21,1.71-.43,1.71-.5,1.71-.78,1.64-.93,1.64-1.14,1.64-1.28,1.42-1.5,1.42-1.71,1.28-1.71,1.07-1.78.78-1.78.71-1.78.5-1.78.43-1.78.07-1.71-.07-1.78-.21-1.71-.43-1.71-.64-1.71-.78-1.64-1-1.5-1.21-1.5-1.28-1.28-1.42-1.42h0ZM716.8,223.25l1.14,1,.93,1,.78,1.07.71,1.07.57,1.21.43,1.21.21,1.21.07,1.28-.07,2.71-.71,2.71-1.28,2.71-1.78,2.78-2.21,2.42-2.42,1.92-2.42,1.28-1.28.5-1.28.28-1.28.21-1.21.07-1.28-.07-1.28-.28-2.49-.93-1.21-.57-1.07-.93-1.14-.93-1-1-.78-1.07-.57-1.07-.64-1.21-.43-1.21-.21-1.21-.07-1.28.07-2.71.78-2.71,1.21-2.78,1.92-2.71,2.14-2.42,2.42-1.92,2.42-1.28,2.63-.78,1.28-.21,1.21-.07,1.28.07,1.28.28,2.49.93,1.14.57,1,.85h0Z"/>
    <path d="M740.3,238.2l-26.27,26.56,3.63,3.63,11.32-11.46,9.11,9.11.71.78.57.93.43.93.21,1v1.42l-.43,1.28-1.21,1.64-2.21,2.42-1.64,1.78-1,1.28-1.28,1.64-.64,1.14,4.34,4.41.64-.57-.07-.93v-.78l.21-.57.28-.57,5.98-6.62,1.28-1.78.43-.93.21-.93.07-.93-.07-.93-.71-2.21,1.5.43,1.28.07h1.42l1.21-.21,1.21-.5,1.21-.57,1.21-.93,1.07-1,1.21-1.42.93-1.5.64-1.42.28-1.64v-1.07l-.21-1.21-.78-2.42-1.42-2.42-1.92-2.28-12.74-12.67h0ZM740.87,244.89l9.04,8.9.07.21,1.21,1.42.57.93.28.78.07,1v1l-.28.93-.43,1-.57,1-.93,1-1,.93-1.14.57-1.07.43-1.21.07-1.07-.07-1.21-.43-1.07-.71-1-.78-9.26-9.11,8.97-9.04h0Z"/>
    <polygon points="768.14 266.61 738.88 289.6 741.87 293.52 766.57 274.08 748.27 301.78 751.55 305.77 782.74 294.66 758.03 314.03 761.02 317.8 790.35 294.73 785.94 289.11 754.54 300.28 772.7 272.37 768.14 266.61"/>
    <path d="M801.75,312.82l-39.09,7.55,2.71,4.41,11.32-2.28,7.69,12.74-7.33,8.83,2.92,4.7,24.78-31.04-2.99-4.91h0ZM798.54,318.01l-11.25,13.24-5.91-9.83,17.16-3.42h0Z"/>
    <polygon points="813.56 332.68 809.58 334.53 814.99 345.99 785.44 360.23 787.65 364.86 817.2 350.62 822.68 362.01 826.81 360.02 813.56 332.68"/>
    <polygon points="829.23 366.71 794.55 380.6 796.41 385.3 831.15 371.48 829.23 366.71"/>
    <polygon points="833.57 414.28 835.85 413.06 837.84 411.36 839.34 409.36 840.55 407.16 841.26 404.66 841.55 401.96 841.33 399.04 840.76 396.12 840.05 394.2 839.27 392.49 838.34 390.92 837.27 389.5 836.06 388.29 834.71 387.08 833.36 386.22 831.86 385.37 830.23 384.8 828.52 384.3 826.74 384.09 824.81 383.87 822.89 384.02 820.9 384.16 818.69 384.58 816.56 385.23 814.49 386.01 812.57 386.79 810.86 387.72 809.29 388.71 807.8 389.92 806.44 391.14 805.38 392.42 804.38 393.84 803.53 395.19 802.96 396.76 802.46 398.33 802.17 400.04 802.17 401.67 802.17 403.45 802.46 405.23 802.96 407.08 804.17 410.07 805.66 412.57 806.59 413.63 807.58 414.7 808.65 415.56 809.86 416.41 812.5 417.55 813.78 417.98 815.27 418.26 818.41 418.55 821.82 418.26 820.4 413.56 817.98 413.63 815.77 413.49 813.78 412.99 812 412.28 810.5 411.14 809.29 409.86 808.3 408.22 807.44 406.37 806.87 403.67 806.8 402.31 806.87 401.03 807.09 399.82 807.37 398.61 807.87 397.54 808.44 396.55 809.29 395.55 810.15 394.55 812.35 392.84 815.06 391.42 818.41 390.21 821.68 389.43 824.74 389.07 827.45 389.28 829.94 390 832.01 391.21 833 391.99 833.93 392.84 834.64 393.84 835.35 394.91 835.92 396.12 836.42 397.54 836.85 399.47 837.06 401.25 836.92 403.03 836.42 404.66 835.78 406.16 834.85 407.44 833.57 408.58 832.01 409.58 833.57 414.28"/>
    <path d="M848.38,430.44l-39.3-6.69,1,5.2,11.46,1.78,2.78,14.67-10.04,5.62,1.14,5.48,34.1-20.36-1.14-5.7h0ZM843.47,434.14l-15.02,8.54-2.21-11.25,17.23,2.71h0Z"/>
    <polygon points="844.68 499.72 847.38 499.29 849.66 498.5 851.66 497.22 852.58 496.37 853.29 495.51 854.01 494.59 854.58 493.45 855.5 490.96 855.93 488.18 856 484.83 855.72 482.06 855 479.42 853.86 477.22 852.51 475.44 850.8 473.94 848.81 472.94 846.46 472.3 843.97 472.23 841.97 472.52 840.26 473.16 838.77 474.15 837.42 475.51 836.85 476.43 836.35 477.57 835.57 479.78 833.64 490.1 833.22 491.6 832.86 492.88 832.22 494.02 831.65 494.87 830.87 495.59 830.01 496.01 829.02 496.37 827.95 496.51 826.31 496.37 824.89 496.01 823.82 495.16 822.89 494.02 822.18 492.45 821.61 490.74 821.18 489.04 820.97 487.04 821.11 484.76 821.4 482.77 822.04 480.92 823.03 479.42 824.1 478.21 825.6 477.36 827.31 476.72 829.3 476.36 829.16 471.59 826.95 471.8 825.24 472.09 823.82 472.73 822.54 473.44 821.18 474.44 819.97 475.65 818.98 476.93 818.19 478.36 817.48 480.06 816.98 482.13 816.7 484.48 816.7 486.97 817.12 490.39 817.69 493.31 818.83 495.8 820.12 497.86 820.9 498.72 821.82 499.5 822.82 500.07 823.82 500.57 824.89 501 826.02 501.28 828.52 501.5 830.44 501.21 832.15 500.78 833.64 500 834.92 499 836.06 497.79 836.92 496.37 837.63 494.66 838.13 492.81 840.34 481.13 840.98 479.57 841.33 478.85 841.83 478.36 842.54 477.86 843.26 477.57 844.96 477.14 846.39 477.22 847.67 477.64 848.81 478.36 849.66 479.21 850.52 480.35 851.09 481.84 851.51 483.48 851.66 485.33 851.59 487.4 851.3 489.18 850.8 490.74 849.95 492.1 848.88 493.16 847.6 494.02 846.1 494.59 844.47 494.87 844.68 499.72"/>
    <polygon points="855.57 505.84 851.09 505.62 850.38 518.23 817.62 516.23 817.27 521.36 850.09 523.28 849.31 536.03 853.79 536.17 855.57 505.84"/>
    <polygon points="853.01 543.5 827.8 539.37 826.24 539.3 824.53 539.3 822.68 539.59 821.18 540.09 819.47 540.8 818.12 541.79 816.77 542.93 815.56 544.22 814.7 545.71 813.85 547.42 813.28 549.34 812.85 551.41 812.57 554.82 812.78 557.89 813.07 559.24 813.56 560.59 814.06 561.73 814.92 562.94 815.56 563.94 816.48 565.01 818.62 566.57 820.9 567.78 823.32 568.49 848.17 572.48 849.09 567.5 825.1 563.58 824.81 563.44 823.18 563.08 821.61 562.44 820.33 561.66 819.12 560.59 818.19 559.24 817.62 557.74 817.2 556.03 817.12 554.33 817.2 552.47 817.69 550.41 818.48 548.63 819.62 547.13 820.97 546 822.54 545.14 824.39 544.64 826.45 544.5 828.59 544.71 852.23 548.56 853.01 543.5"/>
    <path d="M845.75,583.3l-35.88-10.25-4.34,15.24-.28,1.64-.21,1.5v1.64l.21,1.5.43,1.5.5,1.42.71,1.42.93,1.42,1,1.21,1.21,1.21,1.28,1.07,1.42,1.14,1.64.93,1.78.93,1.78.71,1.99.71,1.99.43,1.92.43,1.92.07h1.78l1.78-.07,1.71-.43,1.64-.5,1.5-.57,1.92-1.14,1.5-1.28,1.21-1.5,1.21-1.71,1-1.78.57-1.71,4.2-15.17h0ZM812.71,579.25l27.55,7.83-2.49,8.76-.93,2.42-1.28,1.99-.71.93-.93.71-1.92,1.07-2.28.71-2.49.28-2.78-.21-3.13-.71-2.71-.93-2.42-1.07-1.99-1.28-1.71-1.28-.78-1-.78-1.14-.5-1-.5-1.21-.21-1.07-.21-1.07.07-1.07.21-1.14,2.92-10.54h0Z"/>
    <polygon points="834.07 622.04 799.47 608.01 789.14 633.57 793.34 635.28 801.75 614.49 813.21 619.12 805.59 637.99 809.79 639.69 817.41 620.83 827.95 625.1 819.62 645.6 823.82 647.31 834.07 622.04"/>
    <polygon points="819.69 656 786.94 638.27 784.52 642.54 811.07 657 775.47 659.35 772.77 664.33 805.66 682.06 807.94 677.79 781.38 663.4 816.91 661.34 819.69 656"/>
    <polygon points="801.96 688.32 798.11 685.69 790.99 696.16 763.94 677.57 761.02 681.77 788.22 700.36 781.03 710.89 784.73 713.39 801.96 688.32"/>
    <polygon points="780.1 719.37 751.55 695.3 733.75 716.38 737.17 719.3 751.62 702.14 761.16 710.18 747.99 725.7 751.41 728.62 764.58 713.1 773.27 720.36 759.03 737.31 762.44 740.23 780.1 719.37"/>
    <polygon points="755.96 747.28 730.19 720.15 726.56 723.57 747.42 745.43 712.82 736.74 708.69 740.66 734.46 767.71 738.09 764.29 717.23 742.36 751.55 751.34 755.96 747.28"/>
    <polygon points="305.41 750.84 301.92 755.39 298.79 750.55 296.23 752.19 299.64 756.96 293.88 758.67 294.87 761.73 300.5 759.88 300.21 765.79 303.42 765.93 303.63 760.02 303.92 760.09 308.12 761.73 309.11 762.02 309.97 759.1 304.41 757.39 307.9 752.76 305.41 750.84"/>
    <polygon points="325.2 765.43 322.85 769.35 333.68 775.83 316.94 804.02 321.36 806.59 338.09 778.46 349.06 784.87 351.33 780.96 325.2 765.43"/>
    <polygon points="353.76 782.24 343 805.45 342.51 806.94 342.15 808.65 341.94 810.36 341.94 811.93 342.22 813.71 342.72 815.42 343.5 817.05 344.43 818.48 345.64 819.76 347.13 820.97 348.84 822.04 350.76 823.03 353.83 824.24 355.39 824.53 356.75 824.74 358.24 824.89 359.66 824.74 360.95 824.53 362.37 824.17 364.72 823.03 366.78 821.54 368.56 819.62 369.92 817.48 380.46 794.55 375.83 792.35 365.72 814.42 365.5 814.7 364.58 816.13 363.65 817.55 362.51 818.62 361.09 819.47 359.59 819.97 357.96 820.19 356.39 820.19 354.54 819.76 352.83 819.12 350.98 818.05 349.41 816.84 348.34 815.34 347.63 813.71 347.28 812 347.28 810.15 347.56 808.15 348.34 806.02 358.38 784.37 353.76 782.24"/>
    <polygon points="399.25 801.39 388.86 837.27 415.34 845.04 416.55 840.62 395.05 834.43 398.47 822.46 418.05 828.16 419.26 823.89 399.75 818.12 402.88 807.23 424.17 813.42 425.45 809.01 399.25 801.39"/>
    <polygon points="431.58 810.15 423.74 846.6 428.73 847.74 436.56 811.22 431.58 810.15"/>
    <polygon points="443.4 812.85 438.48 849.95 443.4 850.52 447.38 820.54 462.26 853.01 467.89 853.86 472.8 816.84 467.96 816.13 463.97 846.1 449.45 813.64 443.4 812.85"/>
    <path d="M478.78,817.27l-.78,37.31,15.74.43,1.64-.07,1.64-.21,1.5-.43,1.42-.57,1.42-.71,1.21-.93,1.21-1,1.14-1.21.93-1.28.93-1.5.71-1.5.71-1.71.5-1.78.43-1.92.21-1.99.07-1.99v-2.14l-.21-1.92-.28-1.92-.5-1.78-.57-1.64-.71-1.64-.93-1.42-1-1.28-1.5-1.5-1.64-1.21-1.78-.78-1.99-.71-1.92-.5-2.06-.21-15.52-.28h0ZM483.13,850.3l.71-28.69,9.04.21,2.63.28,2.21.71,1.99,1.21.78.71.78.93,1.21,1.99.93,2.42.5,2.78.07,3.13-.21,2.92-.5,2.49-.71,2.28-.93,1.99-.71,1-.78,1-.93.78-1,.71-1,.57-1.07.43-1.07.21-1.07.07-10.89-.14h0Z"/>
    <polygon points="513.88 817.62 517.3 854.86 522.29 854.43 520.79 837.13 540.09 835.28 541.65 852.65 546.78 852.23 543.36 815.06 538.23 815.42 539.66 830.8 520.43 832.58 519.01 817.27 513.88 817.62"/>
    <path d="M564.72,810l-1.99.5-1.78.57-1.71.78-1.5,1-1.42,1-1.28,1.21-1.07,1.42-1,1.42-.93,1.64-.57,1.64-.5,1.78-.43,1.78-.21,1.92v1.99l.21,2.14.43,2.14.5,2.14.71,1.99.78,1.78.93,1.71,1,1.64,1.21,1.42,1.28,1.28,1.42,1.07,1.42.93,1.57.78,1.64.57,1.78.43,1.78.21,1.78.07,1.92-.07,1.99-.28,1.99-.5,1.78-.71,1.71-.78,1.5-.93,1.5-1.14,1.21-1.21,1.21-1.42.93-1.42.93-1.64.64-1.57.57-1.78.28-1.78.21-1.99v-2.06l-.21-2.14-.43-2.14-.5-2.14-.71-1.99-.78-1.78-.93-1.71-1-1.5-1.21-1.42-1.28-1.28-1.42-1.14-1.42-.93-1.64-.78-1.57-.57-1.78-.43-1.78-.21-1.78-.07-1.99.07-1.99.5h0ZM565.5,814.35l1.42-.21,1.42-.07,1.42.07,1.28.21,1.21.43,1.21.43,1.07.71,1.07.71,1,.93.93.93.93,1.14.71,1.21,1.28,2.78.93,3.13.43,3.28v2.99l-.64,2.71-1,2.49-1.5,2.14-.93.93-1,.78-1.07.71-1.21.57-1.28.5-1.28.43-1.5.21-1.28.07-1.42-.07-1.28-.21-2.42-.78-1.07-.71-1.14-.71-1-.93-.93-.93-.78-1.07-.78-1.28-1.28-2.71-.93-3.2-.43-3.2.07-2.99.5-2.71,1.07-2.49,1.42-2.14.93-.93,1-.78,1.07-.71,1.21-.57,1.28-.5,1.28-.57h0Z"/>
    <polygon points="583.59 806.94 608.01 838.2 613.28 836.49 614.56 796.69 609.01 798.47 608.94 832.08 588.86 805.09 583.59 806.94"/>
    <polygon points="617.69 795.27 632.93 829.37 658.06 818.12 656.28 814.06 635.78 823.18 630.72 811.93 649.38 803.6 647.46 799.47 628.87 807.73 624.32 797.4 644.46 788.36 642.61 784.23 617.69 795.27"/>
    <polygon points="646.81 782.02 665.68 814.35 669.88 811.86 654.79 785.73 686.33 802.32 691.24 799.4 672.52 767.14 668.17 769.63 683.41 795.76 652.08 779.03 646.81 782.02"/>
    <polygon points="692.24 752.9 695.66 757.39 690.25 759.17 691.03 762.09 696.58 760.09 696.8 766 700 765.79 699.72 759.88 705.27 761.73 706.2 758.67 700.57 756.96 700.78 756.82 703.42 753.04 703.99 752.19 701.35 750.55 698.15 755.47 694.73 750.98 692.24 752.9"/>
    <path d="M495.16,668.96h19.86l42.93,29.05c.5-3.2.85-6.41.85-9.75,0-32.54-26.34-58.88-58.88-58.88-25.06,0-46.42,15.66-54.9,37.74l59.81,40.44h-19.86l-43.08-29.12c-.57,3.2-.85,6.48-.85,9.83,0,32.54,26.34,58.88,58.88,58.88,25.06,0,46.49-15.74,54.97-37.81l-59.74-40.37Z"/>
    <polygon points="509.61 620.54 545.43 504.41 454.57 504.41 490.25 620.54 509.61 620.54"/>
    <polyline points="548.34 494.66 584.16 378.6 538.73 378.6 519.37 436.63 500 393.13 480.63 436.63 461.27 378.6 415.84 378.6 451.58 494.66 480.63 494.66 500 451.16 519.37 494.66 548.34 494.66"/>
    <polyline points="509.61 494.66 509.61 485.05 490.25 485.05 490.25 494.66 509.61 494.66"/>
    <polyline points="587.01 368.92 594.55 344.78 543.5 344.78 543.5 320.5 601.96 320.5 607.87 301.14 543.5 301.14 543.5 277 615.34 277 622.82 252.86 504.84 252.86 504.84 368.92 587.01 368.92"/>
    <polyline points="495.16 368.92 495.16 310.89 456.35 310.89 456.35 335.03 470.95 335.03 470.95 344.78 449.95 344.78 427.38 277 470.95 277 470.95 281.84 495.16 281.84 495.16 252.86 377.18 252.86 412.85 368.92 495.16 368.92"/>
  </g>
</svg>
