<?xml version="1.0" encoding="utf-8"?>
<!-- Generator: Adobe Illustrator 22.1.0, SVG Export Plug-In . SVG Version: 6.00 Build 0)  -->
<svg version="1.1" xmlns="http://www.w3.org/2000/svg" xmlns:xlink="http://www.w3.org/1999/xlink" x="0px" y="0px"
	 viewBox="0 0 1000 1000" style="enable-background:new 0 0 1000 1000;" xml:space="preserve">
<style type="text/css">
	.st0{fill-rule:evenodd;clip-rule:evenodd;}
	.st1{clip-path:url(#SVGID_2_);}
	.st2{fill-rule:evenodd;clip-rule:evenodd;fill:#FFFFFF;}
	.st3{clip-path:url(#SVGID_4_);}
	.st4{clip-path:url(#SVGID_6_);}
	.st5{fill-rule:evenodd;clip-rule:evenodd;fill:#D40000;}
	.st6{clip-path:url(#SVGID_8_);}
	.st7{clip-path:url(#SVGID_10_);}
	.st8{clip-path:url(#SVGID_12_);}
</style>
<g id="Base_x5F_Logo_x5F_White">
</g>
<g id="Base_x5F_Logo_x5F_Black">
</g>
<g id="Base_x5F_Logo_x5F_Colour">
</g>
<g id="Full_x5F_Logo_x5F_White">
</g>
<g id="Full_x5F_Logo_x5F_Black">
</g>
<g id="Full_x5F_Logo_x5F_Colour">
	<g>
		<defs>
			<rect id="SVGID_11_" width="1000" height="1000"/>
		</defs>
		<clipPath id="SVGID_2_">
			<use xlink:href="#SVGID_11_"  style="overflow:visible;"/>
		</clipPath>
		<g class="st1">
			<polygon class="st0" points="149.4,833.2 148.4,834.7 147.4,836.3 146.3,839.7 145.8,843.3 146,847 146.9,850.8 148.4,854.5 
				150.5,857.8 153.5,861.1 155.5,862.9 157.7,864.5 159.8,865.7 162.2,866.7 164.5,867.4 166.9,868 169.3,868.1 171.7,868.1 
				174.2,867.7 176.6,867.1 179,866.4 181.4,865.3 183.8,863.9 186.2,862.3 188.4,860.5 190.5,858.4 193.6,854.9 196,851.6 
				197.6,848.4 198.7,844.7 199.4,841.5 199.7,838.4 199.5,835.3 199,832.3 198,829.7 196.6,827 194.8,824.5 192.5,822.1 
				190.4,820.2 188.3,818.7 186,817.4 183.8,816.4 181.4,815.7 179,815.3 176.6,815.3 174.1,815.4 177.6,809.5 174.2,806.3 
				154.8,826.6 171.4,842.5 175.6,838.1 163.8,826.9 166.6,824.3 169.6,822.3 172.7,821.2 175.6,820.7 178.7,820.8 181.7,821.8 
				184.6,823.3 187.4,825.6 190.1,828.5 191.1,830.2 191.9,831.8 192.5,833.5 192.9,835.2 193.1,836.9 193.1,838.5 192.9,840.4 
				192.4,842.1 191,845.7 188.6,849.4 185.3,853.2 181.8,856.3 178.3,858.8 174.6,860.4 172.9,860.9 171.1,861.2 169.3,861.4 
				167.6,861.2 165.9,860.9 164.2,860.5 162.5,859.8 161,859 157.9,856.6 155.9,854.3 154.3,852.2 153.2,849.8 152.7,847.6 
				152.4,845.2 152.7,842.8 153.4,840.4 154.5,838.1 149.4,833.2 			"/>
			<polygon class="st0" points="127.3,832.5 167.7,799.1 143.1,769.3 138.1,773.3 158.3,797.6 144.9,808.5 126.6,786.6 121.8,790.7 
				140,812.6 127.7,822.9 107.9,799 102.9,803.1 127.3,832.5 			"/>
			<polygon class="st0" points="94.8,792.3 138.9,763.8 135.1,758 98,782.1 127,745.6 123.2,739.7 78.2,751.2 115.2,727.3 
				111.5,721.5 67.5,750 72.9,758.4 118.3,747 89.1,783.6 94.8,792.3 			"/>
			<polygon class="st0" points="60.1,736.2 107.2,713.1 90.1,678.4 84.5,681.1 98.3,709.4 82.7,717 70.1,691.4 64.5,694.2 77,719.8 
				62.7,726.9 49,699 43.2,701.8 60.1,736.2 			"/>
			<polygon class="st0" points="37.9,688.8 87.2,670.8 73.8,634.5 67.9,636.6 78.7,666.2 62.4,672.2 52.5,645.3 46.6,647.6 
				56.3,674.3 41.4,679.8 30.7,650.7 24.6,652.9 37.9,688.8 			"/>
			<polygon class="st0" points="20.7,640 71.7,627.4 70,620.7 28.9,630.8 63.7,594.8 61.7,587 10.8,599.6 12.4,606.3 53.7,596.2 
				18.7,631.8 20.7,640 			"/>
			<polygon class="st0" points="18.3,544.9 14.6,545.9 11.4,547.3 10,548.3 8.7,549.3 7.6,550.6 6.8,551.8 5.2,554.9 4.4,558.6 
				4.1,562.5 4.4,567.2 5.2,571.1 6.5,574.5 8.3,577.5 10.4,579.8 13,581.7 15.9,582.9 19.2,583.5 22.7,583.4 25.5,582.7 
				27.9,581.5 29.9,580 31.4,577.9 32.2,576.5 32.8,574.9 33.5,571.7 34.9,557 35.8,552.9 36.3,551.4 37.2,550.1 38.2,549 
				39.3,548.2 40.6,547.6 42.2,547.3 44.5,547.3 46.3,547.7 48,548.7 49.4,550.3 50.7,552.2 51.7,554.5 52.4,556.9 52.9,559.6 
				53.2,562.8 52.9,565.8 52.2,568.3 51.3,570.5 49.7,572.4 47.7,573.8 45.5,574.9 42.7,575.6 43.7,582.2 46.6,581.7 49,581 
				50.8,580.1 52.7,578.9 54.2,577.5 55.8,575.6 57,573.5 58,571.5 58.9,569 59.3,566 59.3,562.7 59,559.1 58.2,554.6 56.8,550.6 
				55.1,547.2 52.8,544.5 51.7,543.4 50.3,542.4 48.9,541.5 47.5,541 45.8,540.6 44.2,540.4 40.6,540.4 38,541 35.8,541.8 
				33.8,543.1 32,544.6 30.6,546.5 29.4,548.6 28.7,551.1 28.3,553.8 26.6,570.3 26.1,572.7 25.6,573.7 24.9,574.5 24.1,575.2 
				23.1,575.8 20.8,576.5 18.7,576.6 16.9,576.2 15.2,575.5 13.8,574.2 12.5,572.7 11.5,570.8 10.8,568.4 10.3,565.9 10.1,563.1 
				10.3,560.6 11,558.3 12,556.3 13.2,554.6 14.9,553.2 16.9,552.2 19.3,551.7 18.3,544.9 			"/>
			<polygon class="st0" points="16.8,488.9 13.1,489.6 9.9,491.1 6.9,493.1 4.5,495.8 2.5,498.9 1.1,502.5 0.3,506.3 0,510.6 
				0.1,513.4 0.6,516.1 1.3,518.6 2.1,520.8 3.2,523 4.6,525.1 6.2,526.8 7.9,528.4 9.9,529.9 12,531.1 14.2,532.2 16.8,533.1 
				19.4,533.8 22.3,534.2 25.3,534.5 28.4,534.5 31.5,534.4 34.4,534.1 37.2,533.4 39.7,532.7 42.1,531.7 44.4,530.6 46.3,529.1 
				48.2,527.7 49.9,526.1 51.3,524.2 52.5,522.3 53.5,520.1 54.4,517.9 54.9,515.5 55.2,513 55.2,510.3 54.8,505.9 53.7,501.8 
				51.8,498.2 50.7,496.6 49.4,495.1 48,493.7 46.5,492.4 42.8,490.4 38.7,488.9 34.1,487.9 34.2,494.8 37.5,495.6 40.4,496.8 
				42.9,498.2 44.9,499.9 46.6,501.8 47.7,504.1 48.6,506.6 48.9,509.4 48.6,513.5 47.6,516.9 46.9,518.4 46.1,520 44.9,521.3 
				43.7,522.4 42.2,523.5 40.7,524.4 37,525.9 32.8,526.8 27.9,527.2 23.2,527 19,526.2 15.3,524.9 12.3,523 11,521.8 9.9,520.6 
				8.7,519.2 8,517.6 7.3,515.9 6.8,514.2 6.5,512.4 6.3,510.4 6.5,507.6 6.9,505.1 7.7,502.7 9,500.7 10.6,499 12.4,497.6 
				14.5,496.5 16.9,495.8 16.8,488.9 			"/>
			<polygon class="st0" points="1.4,476.2 53.7,480.8 54.4,473.7 30,471.6 32.4,444.4 56.8,446.6 57.5,439.4 5.2,434.8 4.5,441.8 
				26.1,443.8 23.7,471 2.1,469 1.4,476.2 			"/>
			<path class="st0" d="M10.4,405.2L58,434.9l1.4-7.2l-13.9-8.4l4.2-20.6l15.9-2l1.5-7.7l-55.1,8.3L10.4,405.2L10.4,405.2z
				 M18.7,403l24.2-3l-3.2,15.8L18.7,403L18.7,403z"/>
			<path class="st0" d="M18.7,368.3L68.9,384l2.1-6.9l-21.1-6.6l5.4-16.9l0.6-2.8v-3l-0.6-2.7l-1.1-2.5l-1.7-2.4l-2.1-2l-2.5-1.7
				l-3-1.3l-3.1-0.6l-2.8-0.1l-2.8,0.6l-2.7,1l-2.4,1.4l-2,2l-1.6,2.4l-1.3,2.7l-0.3,1L18.7,368.3L18.7,368.3z M44.1,368.6
				l-17.3-5.4l4.4-13.8l0.8-2.3l1-1.8l1.3-1.5l1.3-1l1.6-0.7l1.7-0.4l1.8,0.1l2.1,0.4l2,0.8l1.5,1l1.3,1.3l1,1.4l0.6,1.6l0.1,1.8
				l-0.1,2l-0.4,2.1L44.1,368.6L44.1,368.6z"/>
			<polygon class="st0" points="41.5,302.7 97,308.6 100.4,301.7 61.7,261.4 58,268.8 91.8,301.7 45.1,295.7 41.5,302.7 			"/>
			<path class="st0" d="M74.9,239.5L109,284l3.9-6.2l-10-12.8l11-17.7l15.8,3.7l4.1-6.6l-54.5-11.5L74.9,239.5L74.9,239.5z
				 M83.5,240.5l23.7,5.6l-8.4,13.7L83.5,240.5L83.5,240.5z"/>
			<polygon class="st0" points="95.3,208.2 136.5,240.6 140.8,235.2 107.4,208.9 157.3,214.3 162.2,207.9 121.1,175.5 116.7,180.9 
				150.1,207.2 100.5,201.6 95.3,208.2 			"/>
			<polygon class="st0" points="142.9,150.8 188,180.6 193.8,175.5 173.8,135.1 211.7,159.5 217.3,154.6 192.6,106.3 186.7,111.5 
				207.9,149.9 170.7,126 164.9,131 184.5,170.9 148.7,145.4 142.9,150.8 			"/>
			<polygon class="st0" points="202.2,100.3 233.2,142.6 239,138.4 208,96.1 202.2,100.3 			"/>
			<polygon class="st0" points="260.4,80.2 258,77.2 256.7,76 255.3,74.9 252.4,73.3 250.8,72.7 249.3,72.5 245.9,72.5 242.2,73 
				238.4,74.4 234.3,76.7 231.1,79.1 228.4,81.6 226.6,84.4 225.3,87.5 224.6,90.6 224.8,93.7 225.6,97 227.3,100.1 229,102.3 
				231,104 233.2,105.1 235.7,105.7 237.4,105.8 239.1,105.8 242.4,105.1 256.3,100.3 258.4,99.8 260.2,99.4 261.9,99.2 263.5,99.5 
				264.8,99.9 266,100.6 267.1,101.6 268,102.9 269,104.8 269.4,106.8 269.3,108.8 268.4,110.8 267.1,112.7 265.5,114.6 
				263.5,116.3 261.4,117.8 258.4,119.3 255.7,120.3 253.2,120.8 250.7,120.8 248.4,120.1 246.2,118.9 244.3,117.2 242.5,115.1 
				236.7,118.6 238.6,121.2 240.2,123 241.8,124.4 243.6,125.4 245.7,126.4 248,127 250.4,127.4 252.6,127.4 255.2,127 258.1,126.1 
				261.1,124.8 264.2,123.2 268,120.3 271.1,117.5 273.5,114.6 275,111.5 275.9,108.2 276,106.7 276,105 275.2,101.7 273.6,98.6 
				272.1,96.5 270.4,94.8 268.4,93.4 266.3,92.6 264,92 261.7,91.9 259.1,92.2 256.4,92.9 240.7,98.2 238.3,98.8 236.2,98.4 
				235.2,97.9 234.2,97.4 232.6,95.4 231.8,93.7 231.4,91.9 231.4,90.1 231.8,88.2 232.6,86.4 234.1,84.7 235.7,83.2 238,81.6 
				240.4,80.2 242.8,79.4 245.2,78.9 247.3,79.1 249.4,79.5 251.4,80.5 253.1,81.9 254.6,83.9 260.4,80.2 			"/>
			<polygon class="st0" points="264.5,60.3 287.4,107.5 293.9,104.4 285.9,87.8 289.5,77.1 317.7,92.7 326,88.6 292.2,70.3 
				302.1,42 293.6,46.1 282.1,80.1 270.9,57.2 264.5,60.3 			"/>
			<polygon class="st0" points="312.2,38 324.3,71.6 325.2,73.7 326.4,75.8 328,77.7 329.7,79.4 331.6,80.8 333.9,82 336.1,82.9 
				338.5,83.3 341.1,83.4 343.6,83.2 346.4,82.6 349.2,81.7 353.6,79.9 357.1,77.5 358.7,76.1 359.9,74.7 361.1,73.2 362.1,71.5 
				362.8,69.8 363.3,68.1 363.9,64.4 363.8,60.8 362.9,57.2 350.9,24 344.3,26.4 355.7,58.4 355.9,58.9 356.4,61.2 356.8,63.4 
				356.7,65.7 356.1,67.8 355.2,69.9 353.8,71.7 352.1,73.3 349.9,74.7 347.6,75.7 344.6,76.5 341.9,76.7 339.4,76.4 337,75.6 
				334.9,74.1 333.1,72.3 331.5,69.9 330.2,67.1 318.8,35.6 312.2,38 			"/>
			<polygon class="st0" points="365.6,19.6 377.6,70.8 384.3,69.1 374.6,27.8 410.4,63 418.1,61.2 406,10.1 399.2,11.6 409.1,53 
				373.7,17.7 365.6,19.6 			"/>
			<path class="st0" d="M421.2,7.4l6.2,52.1l22-2.5l2.3-0.4l2.1-0.7l2.1-0.8l1.8-1l1.7-1.3l1.5-1.5l1.6-1.7l1.3-1.8l1-2l1-2.3
				l0.7-2.3l0.6-2.5l0.4-2.5l0.1-2.7v-2.8l-0.3-3l-0.4-2.8l-0.7-2.7l-0.8-2.5l-1-2.4l-1.1-2.3l-1.3-2l-1.5-1.8l-1.7-1.6l-2.4-1.8
				l-2.5-1.4l-2.5-0.7l-3-0.7l-2.8-0.1h-2.5L421.2,7.4L421.2,7.4z M433.7,52.6l-4.6-40l12.5-1.4l3.7-0.1l3.4,0.6l2.8,1.3l2.5,1.8
				l2.1,2.5l1.7,3.2l1.3,3.8l0.8,4.4l0.3,3.9l-0.1,3.7l-0.6,3.4l-0.8,2.8l-0.8,1.7l-1,1.6l-1.1,1.3l-1.1,1.3l-1.4,1l-1.4,0.7
				l-1.4,0.6l-1.6,0.3L433.7,52.6L433.7,52.6z"/>
			<polygon class="st0" points="477.8,1.8 478.2,54.1 517,53.9 516.8,47.5 485.4,47.8 485.3,30.3 513.9,30.2 513.7,23.7 485.1,24 
				485,8.1 516.1,7.8 516.1,1.5 477.8,1.8 			"/>
			<polygon class="st0" points="551.9,3.9 544.6,55.8 582.9,61.3 583.7,55 552.6,50.6 555,33.3 583.3,37.4 584.1,31.1 555.8,27.1 
				558.1,11.2 588.9,15.6 589.8,9.2 551.9,3.9 			"/>
			<polygon class="st0" points="603,11.9 590.1,62.7 596.8,64.4 607.2,23.3 622.7,71 630.5,72.9 643.3,22.2 636.7,20.3 626.1,61.5 
				611.2,13.9 603,11.9 			"/>
			<polygon class="st0" points="677.9,34.3 658.9,83.2 665.5,85.8 684.7,37 677.9,34.3 			"/>
			<polygon class="st0" points="698.5,42.2 675.7,89.4 681.9,92.5 700.3,54.3 705.9,104 713.1,107.5 735.9,60.3 729.6,57.2 
				711.2,95.6 706.1,45.8 698.5,42.2 			"/>
			<polygon class="st0" points="749.3,67.9 721.6,112.5 727.8,116.3 740.3,96.1 762.1,109.6 765.5,104.3 743.7,90.8 752,77.1 
				776.9,92.6 780.3,87.1 749.3,67.9 			"/>
			<path class="st0" d="M808.5,106.5l-2.3-1.7l-2.4-1.4l-2.4-1l-2.4-0.8l-2.5-0.6l-2.4-0.3h-2.5l-2.4,0.3l-2.4,0.6l-2.4,0.7l-2.4,1
				l-2.3,1.4l-2.3,1.6l-2.1,1.8l-2.1,2l-2,2.4l-1.7,2.4l-1.6,2.5l-1.3,2.5l-1,2.5l-0.7,2.5l-0.6,2.5l-0.1,2.5l0.1,2.5l0.3,2.4
				l0.6,2.4l0.9,2.3l1.1,2.3l1.4,2.3l1.5,2l2,2l2.1,1.8l2.3,1.7l2.4,1.3l2.4,1.1l2.4,0.8l2.5,0.6l2.4,0.3h2.5l2.4-0.3l2.4-0.6
				l2.4-0.7l2.4-1.1l2.3-1.3l2.3-1.6l2.3-1.8l2-2.1l2-2.4l1.8-2.4l1.5-2.5l1.1-2.5l1-2.5l0.7-2.5l0.6-2.5l0.1-2.4l-0.1-2.5l-0.3-2.4
				l-0.6-2.4l-0.9-2.4l-1.1-2.3l-1.4-2.1l-1.7-2.1l-1.8-1.8L808.5,106.5L808.5,106.5L808.5,106.5z M804.5,111.3l1.6,1.4l1.3,1.4
				l1.1,1.5l1,1.5l0.8,1.7l0.6,1.7l0.3,1.7l0.1,1.8l-0.1,3.8l-1,3.8l-1.8,3.8l-2.5,3.9l-3.1,3.4l-3.4,2.7l-3.4,1.8l-1.8,0.7
				l-1.8,0.4l-1.8,0.3l-1.7,0.1l-1.8-0.1l-1.8-0.4l-3.5-1.3l-1.7-0.8l-1.5-1.3l-1.6-1.3l-1.4-1.4l-1.1-1.5l-0.8-1.5l-0.9-1.7
				l-0.6-1.7l-0.3-1.7l-0.1-1.8l0.1-3.8l1.1-3.8l1.7-3.9l2.7-3.8l3-3.4l3.4-2.7l3.4-1.8l3.7-1.1l1.8-0.3l1.7-0.1l1.8,0.1l1.8,0.4
				l3.5,1.3l1.6,0.8L804.5,111.3L804.5,111.3L804.5,111.3z"/>
			<path class="st0" d="M837.5,132.3l-36.9,37.3l5.1,5.1l15.9-16.1l12.8,12.8l1,1.1l0.8,1.3l0.6,1.3l0.3,1.4v2l-0.6,1.8l-1.7,2.3
				l-3.1,3.4l-2.3,2.5l-1.4,1.8l-1.8,2.3l-0.9,1.6l6.1,6.2l0.9-0.8l-0.1-1.3v-1.1l0.3-0.8l0.4-0.8l8.4-9.3l1.8-2.5l0.6-1.3l0.3-1.3
				l0.1-1.3l-0.1-1.3l-1-3.1l2.1,0.6l1.8,0.1h2l1.7-0.3l1.7-0.7l1.7-0.8l1.7-1.3l1.5-1.4l1.7-2l1.3-2.1l0.9-2l0.4-2.3v-1.5l-0.3-1.7
				l-1.1-3.4l-2-3.4l-2.7-3.2L837.5,132.3L837.5,132.3z M838.3,141.7l12.7,12.5l0.1,0.3l1.7,2l0.8,1.3l0.4,1.1l0.1,1.4v1.4l-0.4,1.3
				l-0.6,1.4l-0.8,1.4l-1.3,1.4l-1.4,1.3l-1.6,0.8l-1.5,0.6l-1.7,0.1l-1.5-0.1l-1.7-0.6l-1.5-1l-1.4-1.1l-13-12.8L838.3,141.7
				L838.3,141.7z"/>
			<polygon class="st0" points="876.6,172.2 835.5,204.5 839.7,210 874.4,182.7 848.7,221.6 853.3,227.2 897.1,211.6 862.4,238.8 
				866.6,244.1 907.8,211.7 901.6,203.8 857.5,219.5 883,180.3 876.6,172.2 			"/>
			<path class="st0" d="M923.8,237.1l-54.9,10.6l3.8,6.2l15.9-3.2l10.8,17.9l-10.3,12.4l4.1,6.6L928,244L923.8,237.1L923.8,237.1z
				 M919.3,244.4L903.5,263l-8.3-13.8L919.3,244.4L919.3,244.4z"/>
			<polygon class="st0" points="940.4,265 934.8,267.6 942.4,283.7 900.9,303.7 904,310.2 945.5,290.2 953.2,306.2 959,303.4 
				940.4,265 			"/>
			<polygon class="st0" points="962.4,312.8 913.7,332.3 916.3,338.9 965.1,319.5 962.4,312.8 			"/>
			<polygon class="st0" points="968.5,379.6 971.7,377.9 974.5,375.5 976.6,372.7 978.3,369.6 979.3,366.1 979.7,362.3 979.4,358.2 
				978.6,354.1 977.6,351.4 976.5,349 975.2,346.8 973.7,344.8 972,343.1 970.1,341.4 968.2,340.2 966.1,339 963.8,338.2 
				961.4,337.5 958.9,337.2 956.2,336.9 953.5,337.1 950.7,337.3 947.6,337.9 944.6,338.8 941.7,339.9 939,341 936.6,342.3 
				934.4,343.7 932.3,345.4 930.4,347.1 928.9,348.9 927.5,350.9 926.3,352.8 925.5,355 924.8,357.2 924.4,359.6 924.4,361.9 
				924.4,364.4 924.8,366.9 925.5,369.5 927.2,373.7 929.3,377.2 930.6,378.7 932,380.2 933.5,381.4 935.2,382.6 938.9,384.2 
				940.7,384.8 942.8,385.2 947.2,385.6 952,385.2 950,378.6 946.6,378.7 943.5,378.5 940.7,377.8 938.2,376.8 936.1,375.2 
				934.4,373.4 933,371.1 931.8,368.5 931,364.7 930.9,362.8 931,361 931.3,359.3 931.7,357.6 932.4,356.1 933.2,354.7 934.4,353.3 
				935.6,351.9 938.7,349.5 942.5,347.5 947.2,345.8 951.8,344.7 956.1,344.2 959.9,344.5 963.4,345.5 966.3,347.2 967.7,348.3 
				969,349.5 970,350.9 971,352.4 971.8,354.1 972.5,356.1 973.1,358.8 973.4,361.3 973.2,363.8 972.5,366.1 971.6,368.2 970.3,370 
				968.5,371.6 966.3,373 968.5,379.6 			"/>
			<path class="st0" d="M989.3,402.3l-55.2-9.4l1.4,7.3l16.1,2.5l3.9,20.6l-14.1,7.9l1.6,7.7l47.9-28.6L989.3,402.3L989.3,402.3z
				 M982.4,407.5l-21.1,12l-3.1-15.8L982.4,407.5L982.4,407.5z"/>
			<polygon class="st0" points="984.1,499.6 987.9,499 991.1,497.9 993.9,496.1 995.2,494.9 996.2,493.7 997.2,492.4 998,490.8 
				999.3,487.3 999.9,483.4 1000,478.7 999.6,474.8 998.6,471.1 997,468 995.1,465.5 992.7,463.4 989.9,462 986.6,461.1 983.1,461 
				980.3,461.4 977.9,462.3 975.8,463.7 973.9,465.6 973.1,466.9 972.4,468.5 971.3,471.6 968.6,486.1 968,488.2 967.5,490 
				966.6,491.6 965.8,492.8 964.7,493.8 963.5,494.4 962.1,494.9 960.6,495.1 958.3,494.9 956.3,494.4 954.8,493.2 953.5,491.6 
				952.5,489.4 951.7,487 951.1,484.6 950.8,481.8 951,478.6 951.4,475.8 952.3,473.2 953.7,471.1 955.2,469.4 957.3,468.2 
				959.7,467.3 962.5,466.8 962.3,460.1 959.2,460.4 956.8,460.8 954.8,461.7 953,462.7 951.1,464.1 949.4,465.8 948,467.6 
				946.9,469.6 945.9,472 945.2,474.9 944.8,478.2 944.8,481.7 945.4,486.5 946.2,490.6 947.8,494.1 949.6,497 950.7,498.2 
				952,499.3 953.4,500.1 954.8,500.8 956.3,501.4 957.9,501.8 961.4,502.1 964.1,501.7 966.5,501.1 968.6,500 970.4,498.6 
				972,496.9 973.2,494.9 974.2,492.5 974.9,489.9 978,473.5 978.9,471.3 979.4,470.3 980.1,469.6 981.1,468.9 982.1,468.5 
				984.5,467.9 986.5,468 988.3,468.6 989.9,469.6 991.1,470.8 992.3,472.4 993.1,474.5 993.7,476.8 993.9,479.4 993.8,482.3 
				993.4,484.8 992.7,487 991.5,488.9 990,490.4 988.2,491.6 986.1,492.4 983.8,492.8 984.1,499.6 			"/>
			<polygon class="st0" points="999.4,508.2 993.1,507.9 992.1,525.6 946.1,522.8 945.6,530 991.7,532.7 990.6,550.6 996.9,550.8 
				999.4,508.2 			"/>
			<polygon class="st0" points="995.8,561.1 960.4,555.3 958.2,555.2 955.8,555.2 953.2,555.6 951.1,556.3 948.7,557.3 946.8,558.7 
				944.9,560.3 943.2,562.1 942,564.2 940.8,566.6 940,569.3 939.4,572.2 939,577 939.3,581.3 939.7,583.2 940.4,585.1 941.1,586.7 
				942.3,588.4 943.2,589.8 944.5,591.3 947.5,593.5 950.7,595.2 954.1,596.2 989,601.8 990.3,594.8 956.6,589.3 956.2,589.1 
				953.9,588.6 951.7,587.7 949.9,586.6 948.2,585.1 946.9,583.2 946.1,581.1 945.5,578.7 945.4,576.3 945.5,573.7 946.2,570.8 
				947.3,568.3 948.9,566.2 950.8,564.6 953,563.4 955.6,562.7 958.5,562.5 961.5,562.8 994.7,568.2 995.8,561.1 			"/>
			<path class="st0" d="M985.6,617l-50.4-14.4l-6.1,21.4l-0.4,2.3l-0.3,2.1v2.3l0.3,2.1l0.6,2.1l0.7,2l1,2l1.3,2l1.4,1.7l1.7,1.7
				l1.8,1.5l2,1.6l2.3,1.3l2.5,1.3l2.5,1l2.8,1l2.8,0.6l2.7,0.6l2.7,0.1h2.5l2.5-0.1l2.4-0.6l2.3-0.7l2.1-0.8l2.7-1.6l2.1-1.8
				l1.7-2.1l1.7-2.4l1.4-2.5l0.8-2.4L985.6,617L985.6,617z M939.2,611.3l38.7,11l-3.5,12.3l-1.3,3.4l-1.8,2.8l-1,1.3l-1.3,1
				l-2.7,1.5l-3.2,1l-3.5,0.4l-3.9-0.3l-4.4-1l-3.8-1.3l-3.4-1.5l-2.8-1.8l-2.4-1.8l-1.1-1.4l-1.1-1.6l-0.7-1.4l-0.7-1.7l-0.3-1.5
				l-0.3-1.5l0.1-1.5l0.3-1.6L939.2,611.3L939.2,611.3z"/>
			<polygon class="st0" points="969.2,671.4 920.6,651.7 906.1,687.6 912,690 923.8,660.8 939.9,667.3 929.2,693.8 935.1,696.2 
				945.8,669.7 960.6,675.7 948.9,704.5 954.8,706.9 969.2,671.4 			"/>
			<polygon class="st0" points="949,719.1 903,694.2 899.6,700.2 936.9,720.5 886.9,723.8 883.1,730.8 929.3,755.7 932.5,749.7 
				895.2,729.5 945.1,726.6 949,719.1 			"/>
			<polygon class="st0" points="924.1,764.5 918.7,760.8 908.7,775.5 870.7,749.4 866.6,755.3 904.8,781.4 894.7,796.2 899.9,799.7 
				924.1,764.5 			"/>
			<polygon class="st0" points="893.4,808.1 853.3,774.3 828.3,803.9 833.1,808 853.4,783.9 866.8,795.2 848.3,817 853.1,821.1 
				871.6,799.3 883.8,809.5 863.8,833.3 868.6,837.4 893.4,808.1 			"/>
			<polygon class="st0" points="859.5,847.3 823.3,809.2 818.2,814 847.5,844.7 798.9,832.5 793.1,838 829.3,876 834.4,871.2 
				805.1,840.4 853.3,853 859.5,847.3 			"/>
			<polygon class="st0" points="226.7,852.3 221.8,858.7 217.4,851.9 213.8,854.2 218.6,860.9 210.5,863.3 211.9,867.6 219.8,865 
				219.4,873.3 223.9,873.5 224.2,865.2 224.6,865.3 230.5,867.6 231.9,868 233.1,863.9 225.3,861.5 230.2,855 226.7,852.3 			"/>
			<polygon class="st0" points="254.5,872.8 251.2,878.3 266.4,887.4 242.9,927 249.1,930.6 272.6,891.1 288,900.1 291.2,894.6 
				254.5,872.8 			"/>
			<polygon class="st0" points="294.6,896.4 279.5,929 278.8,931.1 278.3,933.5 278,935.9 278,938.1 278.4,940.6 279.1,943 
				280.2,945.3 281.5,947.3 283.2,949.1 285.3,950.8 287.7,952.3 290.4,953.7 294.7,955.4 296.9,955.8 298.8,956.1 300.9,956.3 
				302.9,956.1 304.7,955.8 306.7,955.3 310,953.7 312.9,951.6 315.4,948.9 317.3,945.9 332.1,913.7 325.6,910.6 311.4,941.6 
				311.1,942 309.8,944 308.5,946 306.9,947.5 304.9,948.7 302.8,949.4 300.5,949.7 298.3,949.7 295.7,949.1 293.3,948.2 
				290.7,946.7 288.5,945 287,942.9 286,940.6 285.5,938.2 285.5,935.6 285.9,932.8 287,929.8 301.1,899.4 294.6,896.4 			"/>
			<polygon class="st0" points="358.5,923.3 343.9,973.7 381.1,984.6 382.8,978.4 352.6,969.7 357.4,952.9 384.9,960.9 386.6,954.9 
				359.2,946.8 363.6,931.5 393.5,940.2 395.3,934 358.5,923.3 			"/>
			<polygon class="st0" points="403.9,935.6 392.9,986.8 399.9,988.4 410.9,937.1 403.9,935.6 			"/>
			<polygon class="st0" points="420.5,939.4 413.6,991.5 420.5,992.3 426.1,950.2 447,995.8 454.9,997 461.8,945 455,944 
				449.4,986.1 429,940.5 420.5,939.4 			"/>
			<path class="st0" d="M470.2,945.6l-1.1,52.4l22.1,0.6l2.3-0.1l2.3-0.3l2.1-0.6l2-0.8l2-1l1.7-1.3l1.7-1.4l1.6-1.7l1.3-1.8
				l1.3-2.1l1-2.1l1-2.4l0.7-2.5l0.6-2.7l0.3-2.8l0.1-2.8v-3l-0.3-2.7l-0.4-2.7l-0.7-2.5l-0.8-2.3l-1-2.3l-1.3-2l-1.4-1.8l-2.1-2.1
				l-2.3-1.7l-2.5-1.1l-2.8-1l-2.7-0.7L492,946L470.2,945.6L470.2,945.6z M476.3,992l1-40.3l12.7,0.3l3.7,0.4l3.1,1l2.8,1.7l1.1,1
				l1.1,1.3l1.7,2.8l1.3,3.4l0.7,3.9l0.1,4.4l-0.3,4.1l-0.7,3.5l-1,3.2l-1.3,2.8l-1,1.4l-1.1,1.4l-1.3,1.1l-1.4,1l-1.4,0.8l-1.5,0.6
				l-1.5,0.3l-1.5,0.1L476.3,992L476.3,992z"/>
			<polygon class="st0" points="519.5,946.1 524.3,998.4 531.3,997.8 529.2,973.5 556.3,970.9 558.5,995.3 565.7,994.7 560.9,942.5 
				553.7,943 555.7,964.6 528.7,967.1 526.7,945.6 519.5,946.1 			"/>
			<path class="st0" d="M590.9,935.4l-2.8,0.7l-2.5,0.8l-2.4,1.1l-2.1,1.4l-2,1.4l-1.8,1.7l-1.5,2l-1.4,2l-1.3,2.3l-0.8,2.3
				l-0.7,2.5l-0.6,2.5l-0.3,2.7v2.8l0.3,3l0.6,3l0.7,3l1,2.8l1.1,2.5l1.3,2.4l1.4,2.3l1.7,2l1.8,1.8l2,1.5l2,1.3l2.2,1.1l2.3,0.8
				l2.5,0.6l2.5,0.3l2.5,0.1l2.7-0.1l2.8-0.4l2.8-0.7l2.5-1l2.4-1.1l2.1-1.3l2.1-1.6l1.7-1.7l1.7-2l1.3-2l1.3-2.3l0.9-2.2l0.8-2.5
				l0.4-2.5l0.3-2.8V963l-0.3-3l-0.6-3l-0.7-3l-1-2.8l-1.1-2.5l-1.3-2.4l-1.4-2.1l-1.7-2l-1.8-1.8l-2-1.6l-2-1.3l-2.3-1.1l-2.2-0.8
				l-2.5-0.6l-2.5-0.3l-2.5-0.1l-2.8,0.1L590.9,935.4L590.9,935.4L590.9,935.4z M592,941.5l2-0.3l2-0.1l2,0.1l1.8,0.3l1.7,0.6
				l1.7,0.6l1.5,1l1.5,1l1.4,1.3l1.3,1.3l1.3,1.6l1,1.7l1.8,3.9l1.3,4.4l0.6,4.6v4.2l-0.9,3.8l-1.4,3.5l-2.1,3l-1.3,1.3l-1.4,1.1
				l-1.5,1l-1.7,0.8l-1.8,0.7l-1.8,0.6l-2.1,0.3l-1.8,0.1l-2-0.1l-1.8-0.3l-3.4-1.1l-1.5-1l-1.6-1l-1.4-1.3l-1.3-1.3l-1.1-1.5
				l-1.1-1.8l-1.8-3.8l-1.3-4.5l-0.6-4.5l0.1-4.2l0.7-3.8l1.5-3.5l2-3l1.3-1.3l1.4-1.1l1.5-1l1.7-0.8l1.8-0.7L592,941.5L592,941.5
				L592,941.5z"/>
			<polygon class="st0" points="617.4,931.1 651.7,975 659.1,972.6 660.9,916.7 653.1,919.2 653,966.4 624.8,928.5 617.4,931.1 			
				"/>
			<polygon class="st0" points="665.3,914.7 686.7,962.6 722,946.8 719.5,941.1 690.7,953.9 683.6,938.1 709.8,926.4 707.1,920.6 
				681,932.2 674.6,917.7 702.9,905 700.3,899.2 665.3,914.7 			"/>
			<polygon class="st0" points="706.2,896.1 732.7,941.5 738.6,938 717.4,901.3 761.7,924.6 768.6,920.5 742.3,875.2 736.2,878.7 
				757.6,915.4 713.6,891.9 706.2,896.1 			"/>
			<polygon class="st0" points="770,855.2 774.8,861.5 767.2,864 768.3,868.1 776.1,865.3 776.4,873.6 780.9,873.3 780.5,865 
				788.3,867.6 789.6,863.3 781.7,860.9 782,860.7 785.7,855.4 786.5,854.2 782.8,851.9 778.3,858.8 773.5,852.5 770,855.2 			"/>
		</g>
		<g class="st1">
			<path class="st5" d="M493.2,737.3h27.9l60.3,40.8c0.7-4.5,1.2-9,1.2-13.7c0-45.7-37-82.7-82.7-82.7c-35.2,0-65.2,22-77.1,53
				l84,56.8h-27.9l-60.5-40.9c-0.8,4.5-1.2,9.1-1.2,13.8c0,45.7,37,82.7,82.7,82.7c35.2,0,65.3-22.1,77.2-53.1L493.2,737.3z"/>
			<polygon class="st5" points="513.5,669.3 563.8,506.2 436.2,506.2 486.3,669.3 513.5,669.3 			"/>
			<polyline class="st5" points="567.9,492.5 618.2,329.5 554.4,329.5 527.2,411 500,349.9 472.8,411 445.6,329.5 381.8,329.5 
				432,492.5 472.8,492.5 500,431.4 527.2,492.5 567.9,492.5 			"/>
			<polyline class="st5" points="513.5,492.5 513.5,479 486.3,479 486.3,492.5 513.5,492.5 			"/>
			<polyline class="st5" points="622.2,315.9 632.8,282 561.1,282 561.1,247.9 643.2,247.9 651.5,220.7 561.1,220.7 561.1,186.8 
				662,186.8 672.5,152.9 506.8,152.9 506.8,315.9 622.2,315.9 			"/>
			<polyline class="st5" points="493.2,315.9 493.2,234.4 438.7,234.4 438.7,268.3 459.2,268.3 459.2,282 429.7,282 398,186.8 
				459.2,186.8 459.2,193.6 493.2,193.6 493.2,152.9 327.5,152.9 377.6,315.9 493.2,315.9 			"/>
		</g>
	</g>
</g>
</svg>
